<?xml version="1.0" encoding="utf-8"?>
<!-- Generator: Adobe Illustrator 23.0.5, SVG Export Plug-In . SVG Version: 6.00 Build 0)  -->
<svg version="1.1" id="Capa_1" xmlns="http://www.w3.org/2000/svg" xmlns:xlink="http://www.w3.org/1999/xlink" x="0px" y="0px"
	 viewBox="0 0 595.28 841.89" style="enable-background:new 0 0 595.28 841.89;" xml:space="preserve">
<style type="text/css">
	.st0{fill:#222222;}
</style>
<path class="st0" d="M251.25,424.39h5.95v2.83h-9.48v-12.6h3.53V424.39z M255.78,417.45h3.83v9.77h3.53v-9.77h3.81v-2.83h-11.17
	V417.45z M272.11,422.16h5.54v-2.66h-5.54v-2.12h6.29v-2.75h-9.78v12.6h10.01v-2.75h-6.52V422.16z M299.07,417.77
	c0.53-0.3,1.13-0.45,1.81-0.45c1.15,0,2.13,0.49,2.94,1.48l2.24-2.05c-0.61-0.77-1.37-1.36-2.28-1.76
	c-0.91-0.41-1.94-0.61-3.08-0.61c-1.31,0-2.48,0.28-3.52,0.84c-1.04,0.56-1.86,1.34-2.45,2.33c-0.59,1-0.89,2.12-0.89,3.38
	s0.3,2.39,0.89,3.38c0.59,1,1.41,1.77,2.45,2.33c1.04,0.56,2.21,0.84,3.52,0.84c1.14,0,2.17-0.2,3.08-0.61
	c0.91-0.41,1.67-1,2.28-1.76l-2.24-2.05c-0.81,0.98-1.79,1.48-2.94,1.48c-0.68,0-1.28-0.15-1.81-0.45c-0.53-0.3-0.94-0.72-1.23-1.27
	c-0.29-0.55-0.44-1.17-0.44-1.88c0-0.71,0.15-1.33,0.44-1.88C298.13,418.49,298.54,418.07,299.07,417.77 M342.15,417.32
	c1.18,0,2.18,0.47,3.03,1.4l2.24-2.05c-0.62-0.74-1.39-1.31-2.32-1.71c-0.93-0.4-1.97-0.59-3.14-0.59c-1.33,0-2.52,0.28-3.58,0.84
	c-1.06,0.56-1.88,1.34-2.48,2.33c-0.59,1-0.89,2.12-0.89,3.38s0.3,2.39,0.89,3.38c0.59,1,1.41,1.77,2.46,2.33
	c1.04,0.56,2.22,0.84,3.53,0.84c0.93,0,1.85-0.14,2.78-0.41c0.93-0.28,1.75-0.67,2.46-1.19v-5.22h-3.12v3.46
	c-0.59,0.28-1.23,0.41-1.91,0.41c-0.69,0-1.3-0.15-1.83-0.46c-0.53-0.31-0.95-0.73-1.25-1.28c-0.3-0.55-0.45-1.17-0.45-1.86
	c0-1.09,0.33-1.96,0.98-2.62C340.22,417.65,341.08,417.32,342.15,417.32 M362.95,420.92c0,1.25-0.3,2.37-0.9,3.37
	c-0.6,1-1.42,1.78-2.48,2.34c-1.05,0.56-2.24,0.85-3.55,0.85c-1.32,0-2.5-0.28-3.55-0.85c-1.05-0.56-1.88-1.34-2.48-2.34
	c-0.6-1-0.9-2.12-0.9-3.37c0-1.25,0.3-2.37,0.9-3.37c0.6-1,1.43-1.78,2.48-2.34c1.05-0.56,2.24-0.85,3.55-0.85
	c1.32,0,2.5,0.28,3.55,0.85c1.05,0.56,1.88,1.34,2.48,2.34C362.65,418.55,362.95,419.67,362.95,420.92 M359.39,420.92
	c0-0.71-0.15-1.33-0.45-1.88c-0.3-0.55-0.7-0.97-1.21-1.27c-0.51-0.3-1.08-0.45-1.71-0.45c-0.63,0-1.2,0.15-1.71,0.45
	c-0.51,0.3-0.91,0.72-1.21,1.27c-0.3,0.55-0.45,1.17-0.45,1.88c0,0.71,0.15,1.33,0.45,1.88c0.3,0.55,0.7,0.97,1.21,1.27
	c0.51,0.3,1.08,0.45,1.71,0.45c0.63,0,1.2-0.15,1.71-0.45c0.51-0.3,0.91-0.72,1.21-1.27C359.24,422.25,359.39,421.63,359.39,420.92
	 M311.78,414.62l-5.5,12.6h3.6l3.62-9.11l3.62,9.11h3.67l-5.52-12.6H311.78z M237.42,414.62l-5.5,12.6h3.6l3.62-9.11l3.62,9.11h3.67
	l-5.52-12.6H237.42z M291.55,421.67c0.42-0.68,0.63-1.47,0.63-2.38c0-0.95-0.23-1.77-0.68-2.47c-0.45-0.7-1.09-1.24-1.92-1.62
	c-0.83-0.38-1.81-0.57-2.94-0.57h-5.7v12.6h3.53v-9.79h1.96c0.72,0,1.27,0.16,1.64,0.49c0.37,0.32,0.55,0.78,0.55,1.37
	c0,0.59-0.18,1.04-0.55,1.36c-0.37,0.32-0.91,0.48-1.64,0.48h-1.15v1.02l1.11,1.73l2.26,3.35h3.78l-2.69-3.96
	C290.53,422.87,291.13,422.34,291.55,421.67 M332.73,421.67c0.42-0.68,0.63-1.47,0.63-2.38c0-0.95-0.23-1.77-0.68-2.47
	c-0.45-0.7-1.09-1.24-1.92-1.62c-0.83-0.38-1.81-0.57-2.94-0.57h-5.7v12.6h3.53v-9.79h1.96c0.72,0,1.27,0.16,1.64,0.49
	c0.37,0.32,0.55,0.78,0.55,1.37c0,0.59-0.18,1.04-0.55,1.36c-0.37,0.32-0.91,0.48-1.64,0.48h-1.15v1.02l1.11,1.73l2.26,3.35h3.78
	l-2.69-3.96C331.71,422.87,332.31,422.34,332.73,421.67"/>
</svg>
